<?xml version="1.0" encoding="UTF-8"?>
<svg width="202px" height="30px" viewBox="0 0 202 30" version="1.1" xmlns="http://www.w3.org/2000/svg" xmlns:xlink="http://www.w3.org/1999/xlink">
    <!-- Generator: Sketch 54.1 (76490) - https://sketchapp.com -->
    <title>Logo</title>
    <desc>Created with Sketch.</desc>
    <g id="auth" stroke="none" stroke-width="1" fill="none" fill-rule="evenodd">
        <g id="login" transform="translate(-619.000000, -333.000000)">
            <g id="Logo/Color" transform="translate(619.000000, 333.000000)">
                <g id="HUEZOOS">
                    <path d="M7.62675784,4.90868758 L7.62675784,12.6945884 L19.4792184,12.6945884 L19.4792184,4.90868758 L16.2944351,4.90868758 L16.2944351,1.47265625 L26.7354577,1.47265625 L26.7354577,4.90868758 L23.5868651,4.90868758 L23.5868651,25.5797059 L26.7354577,25.5797059 L26.7354577,29.0157372 L16.2944351,29.0157372 L16.2944351,25.5797059 L19.4792184,25.5797059 L19.4792184,16.1306197 L7.62675784,16.1306197 L7.62675784,25.5797059 L10.8477319,25.5797059 L10.8477319,29.0157372 L0.424804688,29.0157372 L0.424804688,25.5797059 L3.50101583,25.5797059 L3.50101583,4.90868758 L0.424804688,4.90868758 L0.424804688,1.47265625 L10.8477319,1.47265625 L10.8477319,4.90868758 L7.62675784,4.90868758 Z M37.4143049,4.90868758 L37.4143049,18.9452411 C37.4143049,21.4187087 37.8817637,23.22809 38.8166953,24.3734395 C39.7516269,25.518789 41.1238446,26.0914552 42.9333896,26.0914552 C44.7670619,26.0914552 46.1634065,25.5248812 47.1224654,24.3917163 C48.0815242,23.2585514 48.5610465,21.4552622 48.5610465,18.9817946 L48.5610465,4.90868758 L45.3762632,4.90868758 L45.3762632,1.47265625 L56.0525254,1.47265625 L56.0525254,4.90868758 L52.6505978,4.90868758 L52.6505978,19.3656066 C52.6505978,22.6554403 51.8272671,25.1623778 50.1805812,26.8864944 C48.5338952,28.6106109 46.1181888,29.4726562 42.9333896,29.4726562 C39.7244631,29.4726562 37.3147885,28.6167031 35.7042934,26.9047711 C34.0937984,25.1928392 33.2885629,22.6006109 33.2885629,19.1280087 L33.2885629,4.90868758 L29.922826,4.90868758 L29.922826,1.47265625 L40.6352789,1.47265625 L40.6352789,4.90868758 L37.4143049,4.90868758 Z M78.0590678,9.51443171 L78.0590678,4.90868758 L66.3875608,4.90868758 L66.3875608,13.1149539 L76.5390576,13.1149539 L76.5390576,16.5509852 L66.3875608,16.5509852 L66.3875608,25.5797059 L78.0590678,25.5797059 L78.0590678,20.5535962 L81.4248047,20.5535962 L81.4248047,29.0157372 L58.751319,29.0157372 L58.751319,25.5797059 L62.2618188,25.5797059 L62.2618188,4.90868758 L58.751319,4.90868758 L58.751319,1.47265625 L81.4248047,1.47265625 L81.4248047,9.51443171 L78.0590678,9.51443171 Z" id="HUE" fill="#F29C50" fill-rule="nonzero" transform="translate(40.924805, 15.472656) rotate(-360.000000) translate(-40.924805, -15.472656) "></path>
                    <path d="M94.842378,23.5229788 L103.726597,23.5229788 L103.726597,18.3023337 L108.285368,18.3023337 L108.285368,28.147495 L86.4248047,28.147495 L86.4248047,23.5229788 L99.2396179,5.54878528 L91.7194404,5.54878528 L91.7194404,10.4623337 L87.1606693,10.4623337 L87.1606693,0.924269153 L108.034097,0.924269153 L108.034097,5.02491431 L94.842378,23.5229788 Z M113.026183,14.4545917 C113.026183,11.6967285 113.654353,9.26406464 114.910714,7.15652722 C116.167074,5.0489898 117.934927,3.40814599 120.214324,2.23394657 C122.49372,1.05974715 125.117082,0.47265625 128.084485,0.47265625 C131.051889,0.47265625 133.669268,1.05974715 135.936699,2.23394657 C138.204131,3.40814599 139.963009,5.05501124 141.213387,7.17459173 C142.463765,9.29417222 143.088945,11.7208146 143.088945,14.4545917 C143.088945,17.2244981 142.463765,19.6692048 141.213387,21.7887853 C139.963009,23.9083658 138.198148,25.5522203 135.918751,26.7203982 C133.639355,27.8885761 131.027959,28.4726563 128.084485,28.4726563 C125.200839,28.4726563 122.613373,27.8885761 120.322011,26.7203982 C118.030649,25.5522203 116.241858,23.9083658 114.955584,21.7887853 C113.66931,19.6692048 113.026183,17.2244981 113.026183,14.4545917 Z M135.550819,14.4184627 C135.550819,12.768562 135.25169,11.2662114 134.653423,9.91136593 C134.055156,8.55652044 133.190674,7.47868176 132.059949,6.67781754 C130.929225,5.87695332 129.604083,5.47652722 128.084485,5.47652722 C126.564887,5.47652722 125.242737,5.87695332 124.117996,6.67781754 C122.993254,7.47868176 122.128771,8.55652044 121.524522,9.91136593 C120.920272,11.2662114 120.618152,12.768562 120.618152,14.4184627 C120.618152,16.1526649 120.926255,17.7092085 121.542469,19.0881401 C122.158684,20.4670717 123.02915,21.5509319 124.153891,22.339753 C125.278633,23.1285742 126.576853,23.5229788 128.04859,23.5229788 C129.568188,23.5229788 130.899311,23.1285742 132.042001,22.339753 C133.184691,21.5509319 134.055156,20.4670717 134.653423,19.0881401 C135.25169,17.7092085 135.550819,16.1526649 135.550819,14.4184627 Z M148.368196,14.4545917 C148.368196,11.6967285 148.996367,9.26406464 150.252728,7.15652722 C151.509088,5.0489898 153.27694,3.40814599 155.556337,2.23394657 C157.835734,1.05974715 160.459095,0.47265625 163.426499,0.47265625 C166.393903,0.47265625 169.011282,1.05974715 171.278713,2.23394657 C173.546145,3.40814599 175.305023,5.05501124 176.555401,7.17459173 C177.805779,9.29417222 178.430958,11.7208146 178.430958,14.4545917 C178.430958,17.2244981 177.805779,19.6692048 176.555401,21.7887853 C175.305023,23.9083658 173.540162,25.5522203 171.260765,26.7203982 C168.981368,27.8885761 166.369972,28.4726563 163.426499,28.4726563 C160.542853,28.4726563 157.955387,27.8885761 155.664025,26.7203982 C153.372663,25.5522203 151.583871,23.9083658 150.297597,21.7887853 C149.011324,19.6692048 148.368196,17.2244981 148.368196,14.4545917 Z M170.892833,14.4184627 C170.892833,12.768562 170.593704,11.2662114 169.995437,9.91136593 C169.39717,8.55652044 168.532687,7.47868176 167.401963,6.67781754 C166.271238,5.87695332 164.946097,5.47652722 163.426499,5.47652722 C161.906901,5.47652722 160.584751,5.87695332 159.460009,6.67781754 C158.335268,7.47868176 157.470785,8.55652044 156.866535,9.91136593 C156.262286,11.2662114 155.960165,12.768562 155.960165,14.4184627 C155.960165,16.1526649 156.268268,17.7092085 156.884483,19.0881401 C157.500698,20.4670717 158.371163,21.5509319 159.495905,22.339753 C160.620647,23.1285742 161.918867,23.5229788 163.390603,23.5229788 C164.910201,23.5229788 166.241325,23.1285742 167.384015,22.339753 C168.526705,21.5509319 169.39717,20.4670717 169.995437,19.0881401 C170.593704,17.7092085 170.892833,16.1526649 170.892833,14.4184627 Z M195.501992,3.18233367 L195.501992,0.924269153 L200.096659,0.924269153 L200.096659,9.16168851 L195.501992,9.16168851 C195.310546,7.8369507 194.882792,6.84040153 194.218716,6.17201109 C193.55464,5.50362065 192.696139,5.16943044 191.64319,5.16943044 C190.901339,5.16943044 190.267185,5.38018102 189.74071,5.80168851 C189.214235,6.22319599 188.951002,6.75308317 188.951002,7.39136593 C188.951002,7.95739026 189.118514,8.44512732 189.453544,8.85459173 C189.788573,9.26405615 190.219319,9.61028924 190.745794,9.89330141 C191.272269,10.1763136 192.061969,10.5526539 193.114919,11.0223337 L194.209742,11.4920111 C196.590844,12.5277152 198.388609,13.7440471 199.603091,15.1410433 C200.817573,16.5380396 201.424805,18.2842587 201.424805,20.379753 C201.424805,22.8726687 200.712878,24.844692 199.289002,26.2958821 C197.865127,27.7470721 195.950702,28.4726563 193.545669,28.4726563 C191.200463,28.4726563 189.375776,27.5875038 188.071554,25.8171724 L188.071554,28.147495 L183.476887,28.147495 L183.476887,18.8984627 L188.071554,18.8984627 C188.167277,20.5001911 188.577083,21.7195338 189.300986,22.5565272 C190.024889,23.3935207 191.003041,23.8120111 192.235471,23.8120111 C193.061079,23.8120111 193.75805,23.5290032 194.326403,22.9629788 C194.894757,22.3969545 195.178929,21.7105097 195.178929,20.903624 C195.178929,20.0846952 194.852879,19.3350252 194.200768,18.6545917 C193.548657,17.9741582 192.438888,17.2907242 190.871429,16.6042692 C188.203159,15.4240482 186.267794,14.1535233 185.065278,12.7926563 C183.862761,11.4317892 183.261512,9.86620464 183.261512,8.09588206 C183.261512,6.7109289 183.578589,5.44642541 184.212752,4.30233367 C184.846915,3.15824193 185.723363,2.25803588 186.842122,1.60168851 C187.960881,0.94534114 189.178336,0.617172379 190.494523,0.617172379 C191.547473,0.617172379 192.504685,0.833944405 193.36619,1.26749496 C194.227694,1.70104551 194.939621,2.3393187 195.501992,3.18233367 Z" id="ZOOS" fill="#142626" fill-rule="nonzero" transform="translate(143.924805, 14.472656) rotate(-360.000000) translate(-143.924805, -14.472656) "></path>
                </g>
            </g>
        </g>
    </g>
</svg>