<?xml version="1.0" encoding="UTF-8"?>
<svg width="24px" height="24px" viewBox="0 0 24 24" version="1.1" xmlns="http://www.w3.org/2000/svg" xmlns:xlink="http://www.w3.org/1999/xlink">
    <!-- Generator: Sketch 54.1 (76490) - https://sketchapp.com -->
    <title>Mask</title>
    <desc>Created with Sketch.</desc>
    <defs>
        <path d="M18.7933569,8.89653982 C18.7933101,5.17730553 15.8441309,2.12803828 12.1269685,2.00391045 C8.40980614,1.87978262 5.26377427,4.72551145 5.01561029,8.4364572 C4.7674463,12.147403 7.50655167,15.3866916 11.2071431,15.758615 L11.2071431,17.8620652 L8.44851988,17.8620652 C8.0676335,17.8620652 7.75886408,18.1708346 7.75886408,18.551721 C7.75886408,18.9326074 8.0676335,19.2413768 8.44851988,19.2413768 L11.2071431,19.2413768 L11.2071431,21.3103442 C11.2071431,21.6912306 11.5159125,22 11.8967989,22 C12.2776853,22 12.5864547,21.6912306 12.5864547,21.3103442 L12.5864547,19.2413768 L15.3450779,19.2413768 C15.7259642,19.2413768 16.0347337,18.9326074 16.0347337,18.551721 C16.0347337,18.1708346 15.7259642,17.8620652 15.3450779,17.8620652 L12.5864547,17.8620652 L12.5864547,15.758615 C16.1086018,15.4006099 18.7894054,12.4368325 18.7933569,8.89653982 L18.7933569,8.89653982 Z M6.37955248,8.89653982 C6.37955248,5.84944878 8.84970783,3.37929343 11.8967989,3.37929343 C14.9438899,3.37929343 17.4140453,5.84944878 17.4140453,8.89653982 C17.4140453,11.9436309 14.9438899,14.4137862 11.8967989,14.4137862 C8.85167622,14.4090393 6.38429937,11.9416625 6.37955248,8.89653982 Z" id="path-1"></path>
    </defs>
    <g id="Material-Design-Symbols" stroke="none" stroke-width="1" fill="none" fill-rule="evenodd">
        <g id="icon/huezoos/female_24px" transform="translate(-5.000000, -2.000000)">
            <mask id="mask-2" fill="white">
                <use xlink:href="#path-1"></use>
            </mask>
            <use id="Mask" fill="#ffffff" fill-rule="nonzero" xlink:href="#path-1"></use>
        </g>
    </g>
</svg>