<?xml version="1.0" encoding="UTF-8"?>
<svg width="20px" height="20px" viewBox="0 0 24 24" version="1.1" xmlns="http://www.w3.org/2000/svg" xmlns:xlink="http://www.w3.org/1999/xlink">
    <!-- Generator: Sketch 54.1 (76490) - https://sketchapp.com -->
    <title>Mask</title>
    <desc>Created with Sketch.</desc>
    <defs>
        <path d="M20.9420915,2 L16.6142842,2 C16.0300175,2 15.5563757,2.47364175 15.5563757,3.05790846 C15.5563757,3.64217518 16.0300175,4.11581693 16.6142842,4.11581693 L18.3882043,4.11581693 L15.4842456,7.01977566 C12.2052102,4.47791014 7.45375862,4.71161174 4.44641338,7.72039959 L4.44641338,7.72039959 C1.18420837,10.9830855 1.18420837,16.2909007 4.44833685,19.5516632 C7.71778768,22.8113121 13.0082261,22.8113121 16.2776769,19.5516632 C19.2864648,16.5423944 19.5201664,11.7928663 16.9783009,8.51383093 L19.8841831,5.61179567 L19.8841831,7.38571582 C19.8841831,7.96998253 20.3578248,8.44362428 20.9420915,8.44362428 C21.5263582,8.44362428 22,7.96998253 22,7.38571582 L22,3.05790846 C22,2.77733369 21.8885421,2.50825054 21.6901458,2.30985422 C21.4917495,2.11145789 21.2226663,2 20.9420915,2 Z M14.7831408,18.057127 C12.3404815,20.4947077 8.38553225,20.4947077 5.94287299,18.057127 C3.50535571,15.6200906 3.50535571,11.6538956 5.94287299,9.21685919 C8.38039026,6.77982279 12.3461044,6.77934192 14.7831408,9.21685919 C17.2201772,11.6543765 17.2206581,15.6200906 14.7831408,18.057127 Z" id="path-1"></path>
    </defs>
    <g id="Material-Design-Symbols" stroke="none" stroke-width="1" fill="none" fill-rule="evenodd">
        <g id="icon/huezoos/male_24px" transform="translate(-2.000000, -2.000000)">
            <mask id="mask-2" fill="white">
                <use xlink:href="#path-1"></use>
            </mask>
            <use id="Mask" fill="#ffffff" fill-rule="nonzero" xlink:href="#path-1"></use>
        </g>
    </g>
</svg>